<svg width="16" height="23" viewBox="0 0 16 23" fill="none" xmlns="http://www.w3.org/2000/svg">
<path d="M3.94891 22.3706C2.11198 22.3706 0.881334 21.1852 0.881334 19.4207V3.47654C0.881334 1.71201 2.11198 0.526609 3.94891 0.526609H12.3734C14.1108 0.526609 15.2691 1.71201 15.2691 3.48559V19.4116C15.2691 21.1852 14.1108 22.3706 12.3734 22.3706H3.94891ZM4.61852 19.3664H11.5409C12.1019 19.3664 12.4639 19.0135 12.4639 18.4434V4.45382C12.4639 3.88374 12.1019 3.53084 11.5409 3.53084H4.61852C4.03939 3.53084 3.67744 3.86565 3.67744 4.44477V18.4524C3.67744 19.0316 4.03939 19.3664 4.61852 19.3664ZM6.7993 6.05548C6.29257 6.05548 5.92156 5.68447 5.92156 5.17773C5.92156 4.671 6.30161 4.29094 6.7993 4.29094H9.35109C9.84878 4.29094 10.2288 4.671 10.2288 5.17773C10.2288 5.68447 9.85783 6.05548 9.35109 6.05548H6.7993ZM6.0211 18.5158C5.69534 18.5158 5.46007 18.2896 5.46007 17.9457C5.46007 17.6018 5.69534 17.3756 6.0211 17.3756H10.1293C10.4551 17.3756 10.6903 17.6018 10.6903 17.9457C10.6903 18.2896 10.4551 18.5158 10.1293 18.5158H6.0211Z" fill="#585858"/>
</svg>
