<svg width="24" height="19" viewBox="0 0 24 19" fill="none" xmlns="http://www.w3.org/2000/svg">
<path d="M4.18177 18.2984C2.01908 18.2984 0.788435 17.0678 0.788435 14.9141V4.02833C0.788435 1.8747 2.01908 0.653096 4.17272 0.653096H19.8182C21.9809 0.653096 23.2025 1.8747 23.2025 4.02833V14.9141C23.2025 17.0678 21.9809 18.2984 19.8182 18.2984H4.18177ZM4.56182 15.5023H19.4472C20.0807 15.5023 20.4064 15.2127 20.4064 14.5341V4.42648C20.4064 3.74781 20.0807 3.45825 19.4472 3.45825H4.55277C3.9103 3.45825 3.59359 3.74781 3.59359 4.42648V14.5341C3.59359 15.2127 3.91935 15.5023 4.56182 15.5023ZM8.47094 14.697C8.16327 14.697 7.9461 14.4979 7.9461 14.1721C7.9461 13.8554 8.16327 13.6382 8.47094 13.6382H15.5291C15.8367 13.6382 16.0629 13.8554 16.0629 14.1721C16.0629 14.4979 15.8367 14.697 15.5291 14.697H8.47094Z" fill="#585858"/>
</svg>
