<svg width="30" height="17" viewBox="0 0 30 17" fill="none" xmlns="http://www.w3.org/2000/svg">
<path d="M0.793255 15.1448C0.793255 14.2942 1.49907 13.5974 2.34061 13.5974H4.05085V3.15501C4.05085 1.29999 5.13672 0.241274 6.96459 0.241274H23.0264C24.8723 0.241274 25.9401 1.29999 25.9401 3.15501V13.5974H27.6413C28.4919 13.5974 29.1977 14.2942 29.1977 15.1448C29.1977 15.9863 28.4919 16.6921 27.6413 16.6921H2.34061C1.49907 16.6921 0.793255 15.9863 0.793255 15.1448ZM6.84696 13.5974H23.144V3.80653C23.144 3.2636 22.8906 3.03738 22.3748 3.03738H17.9137C17.769 3.03738 17.6875 3.11882 17.6875 3.2636V3.55316C17.6875 3.99656 17.398 4.30422 16.9546 4.30422H13.0454C12.602 4.30422 12.3034 3.99656 12.3034 3.55316V3.2636C12.3034 3.11882 12.222 3.03738 12.0772 3.03738H7.60706C7.10033 3.03738 6.84696 3.2636 6.84696 3.80653V13.5974Z" fill="#585858"/>
</svg>
