<svg width="20" height="19" viewBox="0 0 20 19" fill="none" xmlns="http://www.w3.org/2000/svg">
<path d="M17.8273 1.65752C18.7774 2.59861 19.0579 3.8383 19.0579 5.82906V13.1044C19.0579 15.0951 18.7774 16.3258 17.8273 17.2759C16.8681 18.226 15.6103 18.5246 13.6377 18.5246H6.36235C4.38969 18.5246 3.14095 18.226 2.17272 17.2759C1.22258 16.3348 0.942069 15.0951 0.942069 13.1044V5.82001C0.942069 3.8383 1.22258 2.60765 2.17272 1.65752C3.1319 0.698341 4.38969 0.408776 6.3533 0.408776H13.6377C15.6103 0.408776 16.8591 0.698341 17.8273 1.65752ZM16.2618 5.57569C16.2618 4.60746 16.1261 4.07357 15.7732 3.70257C15.4022 3.34966 14.8502 3.20488 13.891 3.20488H6.10898C5.1498 3.20488 4.59782 3.34966 4.22681 3.70257C3.87391 4.07357 3.73817 4.60746 3.73817 5.57569V13.3577C3.73817 14.326 3.87391 14.8598 4.22681 15.2218C4.59782 15.5838 5.1498 15.7195 6.10898 15.7195H13.891C14.8502 15.7195 15.4022 15.5838 15.7732 15.2218C16.1261 14.8598 16.2618 14.326 16.2618 13.3577V5.57569ZM6.52523 8.7428C5.78322 8.7428 5.27648 8.23606 5.27648 7.49405V5.94669C5.27648 5.21373 5.78322 4.707 6.52523 4.707H8.65172C9.38468 4.707 9.90046 5.21373 9.90046 5.94669V7.49405C9.90046 8.23606 9.38468 8.7428 8.65172 8.7428H6.52523ZM5.9461 14.1178C5.5751 14.1178 5.27648 13.8102 5.27648 13.4482C5.27648 13.0772 5.5751 12.7876 5.9461 12.7876H14.0539C14.4249 12.7876 14.7145 13.0772 14.7145 13.4482C14.7145 13.8102 14.4249 14.1178 14.0539 14.1178H5.9461Z" fill="#93F500"/>
</svg>
