<svg width="20" height="21" viewBox="0 0 20 21" fill="none" xmlns="http://www.w3.org/2000/svg">
<path d="M9.99095 20.1852C9.42992 20.1852 8.96843 19.769 8.85079 19.1627C7.86446 13.1271 7.1315 12.4213 1.33117 11.6159C0.715847 11.5254 0.281501 11.0458 0.281501 10.4667C0.281501 9.86948 0.733945 9.38989 1.34022 9.3175C7.1677 8.65693 7.99115 7.81538 8.85079 1.77073C8.94128 1.17351 9.41182 0.748208 9.99095 0.748208C10.561 0.748208 11.0225 1.17351 11.1221 1.77073C12.1084 7.80634 12.8594 8.54834 18.6598 9.3175C19.257 9.39894 19.7095 9.87853 19.7095 10.4667C19.7095 11.0458 19.248 11.5345 18.6507 11.6159C12.8233 12.2674 11.9908 13.118 11.1221 19.1536C11.0406 19.7599 10.5701 20.1852 9.99095 20.1852Z" fill="#93F500"/>
</svg>
