<svg width="18" height="19" viewBox="0 0 18 19" fill="none" xmlns="http://www.w3.org/2000/svg">
<path d="M5.17232 8.11842L3.87833 8.10937C1.81519 8.09128 0.141145 6.45343 0.141145 4.39028C0.141145 2.33619 1.80614 0.644047 3.88738 0.644047C5.94148 0.644047 7.62457 2.34524 7.62457 4.39028V5.63903H10.3754V4.39028C10.3754 2.34524 12.0495 0.644047 14.1036 0.644047C16.1848 0.644047 17.8498 2.33619 17.8498 4.39028C17.8498 6.45343 16.1758 8.09128 14.1126 8.10937L12.8277 8.11842V10.8512L14.1126 10.8602C16.1758 10.8783 17.8498 12.5071 17.8498 14.5793C17.8498 16.6334 16.1848 18.3256 14.1036 18.3256C12.0495 18.3256 10.3754 16.6244 10.3754 14.5793V13.3306H7.62457V14.5793C7.62457 16.6244 5.94148 18.3256 3.88738 18.3256C1.80614 18.3256 0.141145 16.6334 0.141145 14.5793C0.141145 12.5071 1.81519 10.8783 3.87833 10.8602L5.17232 10.8512V8.11842ZM3.97787 5.65713H5.15423V4.48077C5.15423 3.71162 4.56605 3.13249 3.88738 3.13249C3.19062 3.13249 2.63864 3.69352 2.63864 4.39933C2.63864 5.0961 3.20872 5.65713 3.97787 5.65713ZM14.0131 5.65713C14.7822 5.65713 15.3614 5.0961 15.3614 4.39933C15.3614 3.69352 14.8003 3.13249 14.1036 3.13249C13.4249 3.13249 12.8367 3.71162 12.8367 4.48077V5.65713H14.0131ZM7.62457 10.8512H10.3754V8.11842H7.62457V10.8512ZM3.97787 13.3034C3.20872 13.3034 2.63864 13.8645 2.63864 14.5703C2.63864 15.267 3.19062 15.8281 3.88738 15.8281C4.56605 15.8281 5.15423 15.2489 5.15423 14.4798V13.3034H3.97787ZM14.0131 13.3034H12.8367V14.4798C12.8367 15.2489 13.4249 15.8281 14.1036 15.8281C14.8003 15.8281 15.3614 15.267 15.3614 14.5703C15.3614 13.8645 14.7822 13.3034 14.0131 13.3034Z" fill="#93F500"/>
</svg>
