<svg width="41" height="41" viewBox="0 0 41 41" fill="none" xmlns="http://www.w3.org/2000/svg">
<path d="M37.9783 2.8523C40.2018 5.0533 40.8082 7.99544 40.8082 12.5097V19.0004H30.6567C32.7004 17.6978 34.0031 15.6091 34.0031 13.161C34.0031 10.0168 31.5999 7.5238 28.276 7.5238C25.7606 7.5238 23.6494 8.91626 22.3243 11.1846V0H28.276C32.7678 0 35.7324 0.628855 37.9783 2.8523ZM17.6528 18.8881C14.0369 18.8881 11.005 16.2604 11.005 13.9246C11.005 12.5771 11.8359 11.791 13.1386 11.791C15.8112 11.791 18.1245 14.9353 18.1245 18.3715V18.8881H17.6528ZM23.1553 18.8881H22.6837V18.3715C22.6837 14.9353 25.0194 11.791 27.6696 11.791C28.9722 11.791 29.8032 12.5771 29.8032 13.9246C29.8032 16.2604 26.7712 18.8881 23.1553 18.8881ZM0 19.0004V12.4873C0 7.99544 0.628855 5.07576 2.8523 2.8523C5.07576 0.628855 8.04035 0 12.5097 0H18.5063V11.1846C17.1587 8.91626 15.0701 7.5238 12.5546 7.5238C9.23069 7.5238 6.8051 10.0168 6.8051 13.161C6.8051 15.6091 8.10773 17.6978 10.174 19.0004H0ZM31.7122 27.984C29.1294 27.4226 25.9627 24.7275 24.7724 22.5489H40.8082V28.2535C40.8082 32.7903 40.2018 35.71 37.9783 37.9334C35.7324 40.1569 32.7678 40.7857 28.276 40.7857H22.3243V25.1766H22.4591C23.9639 29.3091 27.9391 32.4758 31.1732 33.0373C33.0598 33.3742 34.0929 31.9593 34.0929 30.5668C34.0929 29.2193 33.2619 28.3658 31.7122 27.984ZM2.8523 37.9334C0.606396 35.71 0 32.7903 0 28.2535V22.5489H16.0358C14.8455 24.7275 11.6787 27.4001 9.09593 27.984C7.56871 28.3658 6.71527 29.2193 6.71527 30.5668C6.71527 31.9593 7.77085 33.3742 9.63495 33.0373C12.8915 32.4758 16.8443 29.3091 18.3491 25.1766H18.5063V40.7857H12.5322C8.04035 40.7857 5.09821 40.1569 2.8523 37.9334Z" fill="#B2B2B2"/>
</svg>
